<svg xmlns="http://www.w3.org/2000/svg" fill="none"><symbol id="instagram"><path d="M15.583 1.833H6.417a4.583 4.583 0 0 0-4.584 4.584v9.166a4.583 4.583 0 0 0 4.584 4.584h9.166a4.583 4.583 0 0 0 4.584-4.584V6.417a4.583 4.583 0 0 0-4.584-4.584Z" stroke="#fff" stroke-width="1.5" stroke-linecap="round" stroke-linejoin="round"/><path d="M14.667 10.422a3.666 3.666 0 1 1-7.253 1.076 3.666 3.666 0 0 1 7.253-1.075Z" stroke="#fff" stroke-width="1.5" stroke-linecap="round" stroke-linejoin="round"/><path d="M14.667 10.422a3.666 3.666 0 1 1-7.253 1.076 3.666 3.666 0 0 1 7.253-1.075ZM16.042 5.958h.01M16.042 5.958h.01" stroke="#fff" stroke-width="1.5" stroke-linecap="round" stroke-linejoin="round"/></symbol><symbol id="twitter"><path d="M21.083 2.75a9.991 9.991 0 0 1-2.878 1.402A4.107 4.107 0 0 0 11 6.902v.917a9.772 9.772 0 0 1-4.647-1.04C4.914 6.055 3.426 4.33 2.5 3.011c0 0-3.417 8.906 4.833 12.572a10.67 10.67 0 0 1-6.416 1.834c8.25 4.583 18.333 0 18.333-10.542 0-.255-.025-.51-.073-.76a7.076 7.076 0 0 0 1.906-3.365Z" stroke="#fff" stroke-width="1.5" stroke-linecap="round" stroke-linejoin="round"/></symbol></svg>