<svg xmlns="http://www.w3.org/2000/svg" fill="none"><symbol id="close-x"><path d="M21 7 7 21M7 7l14 14" stroke-width="2" stroke-linecap="round" stroke-linejoin="round"/></symbol><symbol id="modal-close"><path id="Vector" d="m18 18-6-6m0 0L6 6m6 6 6-6m-6 6-6 6" stroke-width="2" stroke-linecap="round" stroke-linejoin="round"/></symbol><symbol id="phone-icon"><path d="m14.726 13.865-1.838-.21a1.441 1.441 0 0 0-1.187.413l-1.331 1.331A10.888 10.888 0 0 1 5.6 10.63l1.34-1.339a1.44 1.44 0 0 0 .412-1.186l-.21-1.824A1.448 1.448 0 0 0 5.702 5H4.45c-.818 0-1.498.68-1.447 1.498.383 6.18 5.326 11.116 11.499 11.5.818.05 1.498-.63 1.498-1.448v-1.252a1.434 1.434 0 0 0-1.274-1.433Z"/></symbol><symbol id="flag-svg"><g clip-path="url('#clip0_14922_3804')"><path d="M31.832 1.058H.242v23.509h31.59V1.058Z" fill="gold"/><path fill-rule="evenodd" clip-rule="evenodd" d="M.243 1.058h31.589v11.754H.242V1.058Z" fill="#0057B7"/></g><defs><clipPath id="clip0_14922_3804"><path fill="#fff" transform="translate(0 .8)" d="M0 0h32v24H0z"/></clipPath></defs></symbol></svg>