<svg xmlns="http://www.w3.org/2000/svg">
<!-- chocolate -->
<symbol id="choco" width="62" height="62" viewBox="0 0 62 62" fill="none" xmlns="http://www.w3.org/2000/svg">
<rect x="0.5" y="0.5" width="60" height="60" rx="30.5" stroke="white" stroke-opacity="0.5"/>
<path d="M28.822 17.413L36.349 24.949L36.429 24.869C36.5867 24.7147 36.7978 24.6272 37.0184 24.6248C37.239 24.6224 37.452 24.7052 37.613 24.856L37.619 24.862L38.486 25.729C38.791 26.034 38.801 26.499 38.569 26.823L38.565 26.83L38.422 27.022L44.582 33.182C45.132 33.732 45.132 34.612 44.582 35.162L35.152 44.592C34.602 45.142 33.722 45.142 33.172 44.592L28.725 40.145C28.6512 40.2381 28.5584 40.3145 28.4529 40.3692C28.3474 40.4239 28.2316 40.4556 28.1129 40.4623C27.9943 40.469 27.8756 40.4505 27.7646 40.4081C27.6536 40.3656 27.5529 40.3002 27.469 40.216L24.869 37.616C24.7147 37.4584 24.6272 37.2472 24.6248 37.0266C24.6224 36.806 24.7052 36.593 24.856 36.432L24.862 36.425L24.939 36.349L17.412 28.822C16.862 28.272 16.862 27.392 17.412 26.842L26.842 17.412C27.392 16.862 28.272 16.862 28.822 17.412V17.413ZM35.404 25.893L33.648 24.138C33.5928 24.0811 33.5268 24.0359 33.4538 24.0049C33.3808 23.974 33.3023 23.9581 33.223 23.9581C33.1437 23.9581 33.0653 23.974 32.9923 24.0049C32.9193 24.0359 32.8532 24.0811 32.798 24.138L29.218 27.718C29.1613 27.7743 29.1163 27.8413 29.0856 27.9151C29.0548 27.9889 29.039 28.0681 29.039 28.148C29.039 28.2279 29.0548 28.3071 29.0856 28.3809C29.1163 28.4547 29.1613 28.5217 29.218 28.578L30.967 30.327L31.577 29.717L30.012 28.152L33.222 24.932L34.791 26.506L35.404 25.893ZM30.328 30.965L28.574 29.211C28.5188 29.1541 28.4528 29.1088 28.3798 29.0779C28.3068 29.047 28.2283 29.0311 28.149 29.0311C28.0697 29.0311 27.9913 29.047 27.9183 29.0779C27.8453 29.1088 27.7792 29.1541 27.724 29.211L24.144 32.791L24.139 32.796L24.134 32.801C23.894 33.031 23.894 33.411 24.134 33.651L25.886 35.403L26.502 34.787L24.932 33.223L28.152 30.013L29.716 31.576L30.328 30.965ZM23.822 23.193L27.402 26.773C27.642 27.013 28.022 27.013 28.252 26.763L31.832 23.183C31.8889 23.1288 31.9342 23.0637 31.9651 22.9915C31.9961 22.9193 32.012 22.8416 32.012 22.763H32.022C32.022 22.613 31.962 22.453 31.842 22.333L28.262 18.753C28.2058 18.6962 28.1388 18.651 28.065 18.6203C27.9912 18.5895 27.912 18.5736 27.832 18.5736C27.752 18.5736 27.6729 18.5895 27.599 18.6203C27.5252 18.651 27.4583 18.6962 27.402 18.753L23.822 22.343C23.582 22.573 23.582 22.953 23.822 23.193ZM18.752 28.263L22.332 31.843C22.572 32.083 22.952 32.083 23.182 31.843L26.762 28.263C26.8201 28.2077 26.8661 28.1409 26.8971 28.0669C26.9281 27.9929 26.9434 27.9132 26.942 27.833H26.952C26.952 27.673 26.892 27.523 26.772 27.403L23.192 23.823C23.1368 23.7661 23.0708 23.7209 22.9978 23.6899C22.9248 23.659 22.8463 23.6431 22.767 23.6431C22.6877 23.6431 22.6093 23.659 22.5363 23.6899C22.4633 23.7209 22.3972 23.7661 22.342 23.823L18.752 27.413C18.512 27.643 18.512 28.023 18.752 28.263ZM25.685 37.017L28.047 39.38L37.683 26.34L37.028 25.685L25.685 37.017Z" fill="black"/>
<path d="M28.822 17.413L36.349 24.949L36.429 24.869C36.5867 24.7147 36.7978 24.6272 37.0184 24.6248C37.239 24.6224 37.452 24.7052 37.613 24.856L37.619 24.862L38.486 25.729C38.791 26.034 38.801 26.499 38.569 26.823L38.565 26.83L38.422 27.022L44.582 33.182C45.132 33.732 45.132 34.612 44.582 35.162L35.152 44.592C34.602 45.142 33.722 45.142 33.172 44.592L28.725 40.145C28.6512 40.2381 28.5584 40.3145 28.4529 40.3692C28.3474 40.4239 28.2316 40.4556 28.1129 40.4623C27.9943 40.469 27.8756 40.4505 27.7646 40.4081C27.6536 40.3656 27.5529 40.3002 27.469 40.216L24.869 37.616C24.7147 37.4584 24.6272 37.2472 24.6248 37.0266C24.6224 36.806 24.7052 36.593 24.856 36.432L24.862 36.425L24.939 36.349L17.412 28.822C16.862 28.272 16.862 27.392 17.412 26.842L26.842 17.412C27.392 16.862 28.272 16.862 28.822 17.412V17.413ZM35.404 25.893L33.648 24.138C33.5928 24.0811 33.5268 24.0359 33.4538 24.0049C33.3808 23.974 33.3023 23.9581 33.223 23.9581C33.1437 23.9581 33.0653 23.974 32.9923 24.0049C32.9193 24.0359 32.8532 24.0811 32.798 24.138L29.218 27.718C29.1613 27.7743 29.1163 27.8413 29.0856 27.9151C29.0548 27.9889 29.039 28.0681 29.039 28.148C29.039 28.2279 29.0548 28.3071 29.0856 28.3809C29.1163 28.4547 29.1613 28.5217 29.218 28.578L30.967 30.327L31.577 29.717L30.012 28.152L33.222 24.932L34.791 26.506L35.404 25.893ZM30.328 30.965L28.574 29.211C28.5188 29.1541 28.4528 29.1088 28.3798 29.0779C28.3068 29.047 28.2283 29.0311 28.149 29.0311C28.0697 29.0311 27.9913 29.047 27.9183 29.0779C27.8453 29.1088 27.7792 29.1541 27.724 29.211L24.144 32.791L24.139 32.796L24.134 32.801C23.894 33.031 23.894 33.411 24.134 33.651L25.886 35.403L26.502 34.787L24.932 33.223L28.152 30.013L29.716 31.576L30.328 30.965ZM23.822 23.193L27.402 26.773C27.642 27.013 28.022 27.013 28.252 26.763L31.832 23.183C31.8889 23.1288 31.9342 23.0637 31.9651 22.9915C31.9961 22.9193 32.012 22.8416 32.012 22.763H32.022C32.022 22.613 31.962 22.453 31.842 22.333L28.262 18.753C28.2058 18.6962 28.1388 18.651 28.065 18.6203C27.9912 18.5895 27.912 18.5736 27.832 18.5736C27.752 18.5736 27.6729 18.5895 27.599 18.6203C27.5252 18.651 27.4583 18.6962 27.402 18.753L23.822 22.343C23.582 22.573 23.582 22.953 23.822 23.193ZM18.752 28.263L22.332 31.843C22.572 32.083 22.952 32.083 23.182 31.843L26.762 28.263C26.8201 28.2077 26.8661 28.1409 26.8971 28.0669C26.9281 27.9929 26.9434 27.9132 26.942 27.833H26.952C26.952 27.673 26.892 27.523 26.772 27.403L23.192 23.823C23.1368 23.7661 23.0708 23.7209 22.9978 23.6899C22.9248 23.659 22.8463 23.6431 22.767 23.6431C22.6877 23.6431 22.6093 23.659 22.5363 23.6899C22.4633 23.7209 22.3972 23.7661 22.342 23.823L18.752 27.413C18.512 27.643 18.512 28.023 18.752 28.263ZM25.685 37.017L28.047 39.38L37.683 26.34L37.028 25.685L25.685 37.017Z" fill="#FD9222"/>
</symbol>

<!-- coin -->

<symbol id="coin" width="62" height="62" viewBox="0 0 62 62" fill="none" xmlns="http://www.w3.org/2000/svg">
<rect x="0.5" y="0.5" width="60" height="60" rx="30.5" stroke="white" stroke-opacity="0.5"/>
<path d="M31 17.6666C23.6667 17.6666 17.6667 23.6666 17.6667 31C17.6667 38.3333 23.6667 44.3333 31 44.3333C38.3334 44.3333 44.3334 38.3333 44.3334 31C44.3334 23.6666 38.3334 17.6666 31 17.6666ZM31 41.6666C25.1334 41.6666 20.3334 36.8666 20.3334 31C20.3334 25.1333 25.1334 20.3333 31 20.3333C36.8667 20.3333 41.6667 25.1333 41.6667 31C41.6667 36.8666 36.8667 41.6666 31 41.6666Z" fill="#FD9222"/>
<path d="M32.7334 29.6667H29.2667C28.6 29.6667 28.0667 29.1333 28.0667 28.4667C28.0667 27.8 28.6 27.2667 29.2667 27.2667H34.2C35 27.2667 35.5334 26.7333 35.5334 25.9333C35.5334 25.1333 35 24.6 34.2 24.6H32.3334V23.4C32.3334 22.6 31.8 22.0667 31 22.0667C30.2 22.0667 29.6667 22.6 29.6667 23.4V24.6H29.2667C27.1334 24.6 25.4 26.3333 25.4 28.4667C25.4 30.6 27.1334 32.3333 29.2667 32.3333H32.6C33.2667 32.3333 33.8 32.8666 33.8 33.5333C33.8 34.2 33.2667 34.7333 32.6 34.7333H27.6667C26.8667 34.7333 26.3334 35.2667 26.3334 36.0667C26.3334 36.8667 26.8667 37.4 27.6667 37.4H29.6667V38.6C29.6667 39.4 30.2 39.9333 31 39.9333C31.8 39.9333 32.3334 39.4 32.3334 38.6V37.4H32.7334C34.8667 37.4 36.6 35.6667 36.6 33.5333C36.6 31.4 34.8667 29.6667 32.7334 29.6667Z" fill="#FD9222"/>
</symbol>

<!-- spoon -->

<symbol id="spoon" width="62" height="62" viewBox="0 0 62 62" fill="none" xmlns="http://www.w3.org/2000/svg">
  <rect x="0.5" y="0.5" width="60" height="60" rx="30.5" stroke="white" stroke-opacity="0.5"/>
<path d="M30.4516 29.106C29.669 28.156 29.2751 26.99 29.2751 25.8241C29.2751 21.5003 34.4561 17.1819 39.6372 17.1819C42.4976 17.1819 44.8183 19.503 44.8183 22.364C44.8183 27.546 40.5007 32.7281 36.1724 32.7281C35.0066 32.7281 33.8409 32.334 32.891 31.5513L20.1327 44.3122C19.458 44.9869 18.3625 44.9869 17.6878 44.3122C17.0132 43.6374 17.0132 42.5416 17.6878 41.8669L30.4516 29.106Z" fill="#FD9222"/>
</symbol>

</svg>