<svg xmlns="http://www.w3.org/2000/svg" fill="none">
  <symbol id="close-x">
  <path d="M21 7L7 21" stroke-width="2" stroke-linecap="round" stroke-linejoin="round"/>
  <path d="M7 7L21 21" stroke-width="2" stroke-linecap="round" stroke-linejoin="round"/>
  </symbol>

  <symbol id="modal-close">
  <path id="Vector" d="M18 18L12 12M12 12L6 6M12 12L18 6M12 12L6 18" stroke-width="2" stroke-linecap="round" stroke-linejoin="round"/>
  </symbol><symbol id="phone-icon">
  <path d="M14.7263 13.8651L12.8881 13.6552C12.4467 13.6046 12.0125 13.7566 11.7013 14.0677L10.3697 15.3993C8.3217 14.3572 6.64276 12.6855 5.60067 10.6303L6.93947 9.29144C7.25065 8.98025 7.40263 8.54605 7.35197 8.1046L7.1421 6.28092C7.05526 5.55 6.44013 5 5.70198 5H4.45002C3.63226 5 2.952 5.68026 3.00266 6.49802C3.38621 12.6783 8.32894 17.6138 14.5019 17.9973C15.3197 18.048 15.9999 17.3677 15.9999 16.55V15.298C16.0072 14.5671 15.4572 13.952 14.7263 13.8651Z" />
  </symbol>

  <symbol id="flag-svg">
  <g clip-path="url(#clip0_14922_3804)">
  <path d="M31.8318 1.05835H0.242676V24.5665H31.8318V1.05835Z" fill="#FFD700"/>
  <path fill-rule="evenodd" clip-rule="evenodd" d="M0.242676 1.05835H31.8318V12.8124H0.242676V1.05835Z" fill="#0057B7"/>
  </g>
  <defs>
  <clipPath id="clip0_14922_3804">
  <rect width="32" height="24" fill="white" transform="translate(0 0.800049)"/>
  </clipPath>
  </defs>
  </symbol>

  <symbol id="card-svg">
  <path fill-rule="evenodd" clip-rule="evenodd" d="M16 16.8343C14.4022 18.2053 12.3295 19.033 10.0647 19.033C5.01106 19.033 0.914307 14.9122 0.914307 9.82898C0.914307 4.74576 5.01106 0.625 10.0647 0.625C12.3295 0.625 14.4022 1.45267 16 2.82371C17.5979 1.45267 19.6705 0.625 21.9354 0.625C26.989 0.625 31.0857 4.74576 31.0857 9.82898C31.0857 14.9122 26.989 19.033 21.9354 19.033C19.6705 19.033 17.5979 18.2053 16 16.8343Z" fill="#ED0006"/>
  <path fill-rule="evenodd" clip-rule="evenodd" d="M16 16.8343C17.9674 15.1461 19.215 12.6341 19.215 9.82898C19.215 7.02389 17.9674 4.51189 16 2.82371C17.5978 1.45267 19.6705 0.625 21.9354 0.625C26.989 0.625 31.0857 4.74576 31.0857 9.82898C31.0857 14.9122 26.989 19.033 21.9354 19.033C19.6705 19.033 17.5978 18.2053 16 16.8343Z" fill="#F9A000"/>
  <path fill-rule="evenodd" clip-rule="evenodd" d="M16.0001 16.8343C17.9675 15.1462 19.2151 12.6342 19.2151 9.82909C19.2151 7.02402 17.9675 4.51203 16.0001 2.82385C14.0327 4.51203 12.7852 7.02402 12.7852 9.82909C12.7852 12.6342 14.0327 15.1462 16.0001 16.8343Z" fill="#FF5E00"/>
  </symbol>
</svg>


 