<svg xmlns="http://www.w3.org/2000/svg" fill="none">

  <symbol id="instagram">
  <path d="M15.5834 1.83325H6.41671C3.8854 1.83325 1.83337 3.88528 1.83337 6.41658V15.5833C1.83337 18.1146 3.8854 20.1666 6.41671 20.1666H15.5834C18.1147 20.1666 20.1667 18.1146 20.1667 15.5833V6.41658C20.1667 3.88528 18.1147 1.83325 15.5834 1.83325Z" stroke="white" stroke-width="1.5" stroke-linecap="round" stroke-linejoin="round"/>
  <path d="M14.6667 10.4225C14.7799 11.1854 14.6495 11.9646 14.2943 12.6491C13.9391 13.3337 13.3771 13.8888 12.6882 14.2356C11.9993 14.5823 11.2186 14.703 10.4572 14.5805C9.69576 14.4579 8.99234 14.0984 8.44699 13.5531C7.90165 13.0078 7.54214 12.3043 7.41962 11.5429C7.29709 10.7815 7.41778 10.0008 7.76452 9.31188C8.11126 8.62298 8.66639 8.06096 9.35096 7.70575C10.0355 7.35055 10.8147 7.22024 11.5776 7.33337C12.3557 7.44876 13.0762 7.81137 13.6324 8.36765C14.1887 8.92392 14.5513 9.64435 14.6667 10.4225Z" stroke="white" stroke-width="1.5" stroke-linecap="round" stroke-linejoin="round"/>
  <path d="M14.6667 10.4225C14.7799 11.1854 14.6495 11.9646 14.2943 12.6491C13.9391 13.3337 13.3771 13.8888 12.6882 14.2356C11.9993 14.5823 11.2186 14.703 10.4572 14.5805C9.69576 14.4579 8.99234 14.0984 8.44699 13.5531C7.90165 13.0078 7.54214 12.3043 7.41962 11.5429C7.29709 10.7815 7.41778 10.0008 7.76452 9.31188C8.11126 8.62298 8.66639 8.06096 9.35096 7.70575C10.0355 7.35055 10.8147 7.22024 11.5776 7.33337C12.3557 7.44876 13.0762 7.81137 13.6324 8.36765C14.1887 8.92392 14.5513 9.64435 14.6667 10.4225Z" stroke="white" stroke-width="1.5" stroke-linecap="round" stroke-linejoin="round"/>
  <path d="M16.0416 5.95825H16.0516" stroke="white" stroke-width="1.5" stroke-linecap="round" stroke-linejoin="round"/>
  <path d="M16.0416 5.95825H16.0516" stroke="white" stroke-width="1.5" stroke-linecap="round" stroke-linejoin="round"/>
  </symbol>

  <symbol id="twitter">
  <path d="M21.0833 2.74994C20.2055 3.36913 19.2336 3.84271 18.205 4.15244C17.6529 3.51766 16.9192 3.06774 16.1031 2.86354C15.287 2.65934 14.4278 2.7107 13.6419 3.01069C12.8559 3.31068 12.181 3.84481 11.7085 4.54085C11.236 5.23689 10.9887 6.06125 11 6.90244V7.81911C9.38904 7.86088 7.79279 7.5036 6.35338 6.7791C4.91397 6.0546 3.42609 4.32944 2.49997 3.01069C2.49997 3.01069 -0.916708 11.9166 7.33329 15.5833C5.44544 16.8647 3.19652 17.5073 0.916626 17.4166C9.16663 21.9999 19.25 17.4166 19.25 6.87494C19.2491 6.61961 19.2246 6.3649 19.1766 6.11411C20.1122 5.19148 20.7724 4.02659 21.0833 2.74994Z" stroke="white" stroke-width="1.5" stroke-linecap="round" stroke-linejoin="round"/>
  </symbol>
  
</svg>